<svg xmlns="http://www.w3.org/2000/svg" width="64" height="64" data-name="Layer 1" viewBox="0 0 64 64"><path fill="#1f58bf" d="M46.204 54.5583l-1.5-2.5981-1.7321 1 .5981-4.9641L48.1681 49.96l-1.7321 1 1.5 2.5981a1 1 0 0 1-.366 1.3659h0A1 1 0 0 1 46.204 54.5583zM59 62.1765H5a2.5023 2.5023 0 0 1-2.5-2.5v-1.5a1.0006 1.0006 0 0 1 1-1H22.7636A2.4859 2.4859 0 0 1 25 58.5583l.4472.8945a.5.5 0 0 1-.8945.4473l-.4473-.8945a1.4909 1.4909 0 0 0-1.3418-.8291H3.5v1.5a1.5016 1.5016 0 0 0 1.5 1.5H59a1.5017 1.5017 0 0 0 1.5-1.5v-1.5H41.2363a1.491 1.491 0 0 0-1.3418.8291l-.4473.8945a.5.5 0 0 1-.8945-.4473L39 58.5583a2.4858 2.4858 0 0 1 2.2363-1.3818H60.5a1.0007 1.0007 0 0 1 1 1v1.5A2.5023 2.5023 0 0 1 59 62.1765z"/><path fill="#1f58bf" d="M36 59.1765H28a.5.5 0 0 1 0-1h8a.5.5 0 0 1 0 1zM8 55.6765a.5.5 0 0 1-.5-.5v-28.5a3.5042 3.5042 0 0 1 3.5-3.5H21a.5.5 0 0 1 0 1H11a2.5026 2.5026 0 0 0-2.5 2.5v28.5A.5.5 0 0 1 8 55.6765zM56 55.6765a.5.5 0 0 1-.5-.5v-28.5a2.5026 2.5026 0 0 0-2.5-2.5H43a.5.5 0 0 1 0-1H53a3.5042 3.5042 0 0 1 3.5 3.5v28.5A.5.5 0 0 1 56 55.6765zM37.75 27.8566l-3.49-1.39-.14-.06a.4949.4949 0 0 0-.54.11l-1.93 1.93a.49.49 0 0 0 .05.75l.3.22 1.64 1.23a.455.455 0 0 0 .39.09.465.465 0 0 0 .33-.23l1.42-2.36 1.62.65c.31.11 1.35.55 1.35 1.46v2.9a.5079.5079 0 0 0 .5.5.1949.1949 0 0 0 .08-.01.5072.5072 0 0 0 .42-.49v-2.9A2.64 2.64 0 0 0 37.75 27.8566zm-3.96 1.66l-1.03-.77 1.3-1.29.78.31z"/><path fill="#1f58bf" d="M32.35,28.4465l-1.93-1.93a.4949.4949,0,0,0-.54-.11l-.14.06-3.47,1.38a2.57,2.57,0,0,0-2.02,2.41v2.89a.5455.5455,0,0,0,.05.22.4671.4671,0,0,0,.35.27h.01a.2775.2775,0,0,0,.09.01.4951.4951,0,0,0,.5-.5v-2.92c-.05-.87,1.03-1.32,1.38-1.44l1.59-.64,1.42,2.36a.4649.4649,0,0,0,.33.23.4842.4842,0,0,0,.4-.09l1.63-1.23.3-.22a.49.49,0,0,0,.05-.75Zm-2.14,1.07-1.05-1.75.79-.31,1.29,1.29Z"/><path fill="#1f58bf" d="M43.5,23.5265a11.5,11.5,0,1,0-19.25,8.49v-1.76a2.57,2.57,0,0,1,2.02-2.41l3.47-1.38a8.3549,8.3549,0,0,1-2-2.65,2.5535,2.5535,0,0,1-1.07-1.79,1.46,1.46,0,0,1,1.45-1.46v-.27a1.0137,1.0137,0,0,1,.4-.8.9992.9992,0,0,1,.87-.14,8.1227,8.1227,0,0,0,5.2.03.9242.9242,0,0,1,.88.13.973.973,0,0,1,.42.79v.26a1.46,1.46,0,0,1,1.45,1.46,2.5648,2.5648,0,0,1-1.08,1.79,8.3563,8.3563,0,0,1-2,2.65l3.49,1.39a2.64,2.64,0,0,1,2,2.4v1.76A11.4751,11.4751,0,0,0,43.5,23.5265Zm-7.16-3.93c0-.58-.14-1.93-1.44-1.93a.4872.4872,0,0,1-.41-.23c-.85-1.27-2.53-1.56-4.39-.75a3.7967,3.7967,0,0,0-2.32,2.91l-.98-.19a4.7993,4.7993,0,0,1,2.9-3.63c2.23-.98,4.3-.63,5.47.9,1.33.13,2.17,1.25,2.17,2.92Z"/><polygon fill="#e52e4d" points="32 1.823 32.708 4.003 35 4.003 33.146 5.35 33.854 7.53 32 6.183 30.146 7.53 30.854 5.35 29 4.003 31.292 4.003 32 1.823"/><polygon fill="#e52e4d" points="22 5.438 22.708 7.618 25 7.618 23.146 8.965 23.854 11.144 22 9.797 20.146 11.144 20.854 8.965 19 7.618 21.292 7.618 22 5.438"/><polygon fill="#e52e4d" points="42 5.438 42.708 7.618 45 7.618 43.146 8.965 43.854 11.144 42 9.797 40.146 11.144 40.854 8.965 39 7.618 41.292 7.618 42 5.438"/><ellipse cx="30.25" cy="42.53" fill="#e52e4d" rx="1" ry="1.5"/><path fill="#e52e4d" d="M40,38.03H24a2,2,0,0,0-2,2v5a2,2,0,0,0,2,2H40a2,2,0,0,0,2-2v-5A2,2,0,0,0,40,38.03ZM27.7178,40.7058l-1.5,4a.5.5,0,0,1-.9356,0l-1.5-4a.5.5,0,1,1,.9356-.3516l1.0322,2.752,1.0322-2.752a.5.5,0,0,1,.9356.3516ZM30.25,45.03a2.2949,2.2949,0,0,1-2-2.5,2.2949,2.2949,0,0,1,2-2.5,2.2949,2.2949,0,0,1,2,2.5A2.2949,2.2949,0,0,1,30.25,45.03Zm5.75-4H35v3.5a.5.5,0,0,1-1,0v-3.5H33a.5.5,0,0,1,0-1h3a.5.5,0,0,1,0,1Zm3.5,1a.5.5,0,0,1,0,1H38v1h2a.5.5,0,0,1,0,1H37.5a.5.5,0,0,1-.5-.5v-4a.5.5,0,0,1,.5-.5H40a.5.5,0,0,1,0,1H38v1Z"/><path fill="#1f58bf" d="M50.706 48.7946a.5.5 0 0 1-.1709-.97l1.8789-.6836a.5.5 0 1 1 .3418.94l-1.8789.6836A.5006.5006 0 0 1 50.706 48.7946zM48.0849 46.0817a.4908.4908 0 0 1-.1982-.041.5.5 0 0 1-.2608-.6572l.8887-2.0518a.5.5 0 0 1 .918.3965L48.5439 45.78A.4993.4993 0 0 1 48.0849 46.0817zM38.7285 56.111a.5.5 0 0 1-.3213-.8828l1.5322-1.2861a.5.5 0 0 1 .6426.7656L39.05 55.9938A.4964.4964 0 0 1 38.7285 56.111zM39.2226 51.1989q-.0293 0-.0586-.0029L36.9424 50.94a.5.5 0 1 1 .1152-.9941l2.2217.2559a.5.5 0 0 1-.0567.997z"/></svg>